<?xml version="1.0" encoding="utf-8"?>
<!-- Generator: Adobe Illustrator 19.0.0, SVG Export Plug-In . SVG Version: 6.00 Build 0)  -->
<svg version="1.1" id="Laag_1" xmlns="http://www.w3.org/2000/svg" xmlns:xlink="http://www.w3.org/1999/xlink" x="0px" y="0px"
	 viewBox="0 0 40 35" style="enable-background:new 0 0 40 35;" xml:space="preserve">
<style type="text/css">
	.st0{fill:none;stroke:#E30613;stroke-width:2.5;stroke-miterlimit:10;}
	.st1{fill:#E30613;}
</style>
<path id="XMLID_23_" class="st0" d="M36.2,6.6C25.6-2.7,20,8.3,20,8.3S14.4-2.7,3.8,6.6c0,0-5.9,6.9,3.8,15S20,32.1,20,32.1
	s2.7-2.5,12.4-10.5S36.2,6.6,36.2,6.6z"/>
<path id="XMLID_3_" class="st1" d="M36.2,6.6C25.6-2.7,20,8.3,20,8.3S14.4-2.7,3.8,6.6c0,0-5.9,6.9,3.8,15S20,32.1,20,32.1
	s2.7-2.5,12.4-10.5S36.2,6.6,36.2,6.6z"/>
</svg>
